<svg id="Do_it_from_anywhere" data-name="Do it from anywhere" xmlns="http://www.w3.org/2000/svg" width="160.5" height="155.67" viewBox="0 0 160.5 155.67">
  <g id="Layer_9" data-name="Layer 9">
    <path id="Path_88" data-name="Path 88" d="M94.17,152.67H9.92A6.92,6.92,0,0,1,3,145.75V9.92A6.92,6.92,0,0,1,9.92,3H110.75a6.92,6.92,0,0,1,6.92,6.92V37.33" fill="none" stroke="#7175d8" stroke-miterlimit="10" stroke-width="6"/>
    <rect id="Rectangle_208" data-name="Rectangle 208" width="56.67" height="109" rx="7.58" transform="translate(100.83 43.67)" fill="none" stroke="#7175d8" stroke-miterlimit="10" stroke-width="6"/>
    <rect id="Rectangle_209" data-name="Rectangle 209" width="98" height="10" transform="translate(11.33 11.33)" fill="none" stroke="#7175d8" stroke-miterlimit="10" stroke-width="3"/>
    <rect id="Rectangle_210" data-name="Rectangle 210" width="45" height="7" transform="translate(106.67 52.33)" fill="none" stroke="#7175d8" stroke-miterlimit="10" stroke-width="2"/>
    <rect id="Rectangle_211" data-name="Rectangle 211" width="72.83" height="42.33" transform="translate(11.58 28.59)" fill="none" stroke="#7175d8" stroke-miterlimit="10" stroke-width="3"/>
    <path id="Path_89" data-name="Path 89" d="M92.17,87.67V29H109.5v8.25" fill="none" stroke="#7175d8" stroke-miterlimit="10" stroke-width="3"/>
    <path id="Path_90" data-name="Path 90" d="M55.38,49.75,40.63,41.24V58.27Z" fill="none" stroke="#7175d8" stroke-linecap="round" stroke-linejoin="round" stroke-width="3"/>
    <rect id="Rectangle_212" data-name="Rectangle 212" width="45" height="26.16" transform="translate(106.67 65.67)" fill="none" stroke="#7175d8" stroke-miterlimit="10" stroke-width="2"/>
    <path id="Path_91" data-name="Path 91" d="M133.72,78.75l-9.11-5.26V84.01Z" fill="none" stroke="#7175d8" stroke-linecap="round" stroke-linejoin="round" stroke-width="2"/>
    <line id="Line_88" data-name="Line 88" x2="72.84" transform="translate(11.58 85)" fill="none" stroke="#7175d8" stroke-miterlimit="10" stroke-width="3"/>
    <line id="Line_89" data-name="Line 89" x2="72.84" transform="translate(11.58 95.67)" fill="none" stroke="#7175d8" stroke-miterlimit="10" stroke-width="3"/>
    <line id="Line_90" data-name="Line 90" x2="72.84" transform="translate(11.58 106.67)" fill="none" stroke="#7175d8" stroke-miterlimit="10" stroke-width="3"/>
    <line id="Line_91" data-name="Line 91" x2="72.84" transform="translate(11.58 119)" fill="none" stroke="#7175d8" stroke-miterlimit="10" stroke-width="3"/>
    <line id="Line_92" data-name="Line 92" x2="45" transform="translate(106.67 101.17)" fill="none" stroke="#7175d8" stroke-miterlimit="10" stroke-width="2"/>
    <line id="Line_93" data-name="Line 93" x2="45" transform="translate(106.67 109.83)" fill="none" stroke="#7175d8" stroke-miterlimit="10" stroke-width="2"/>
    <line id="Line_94" data-name="Line 94" x2="45" transform="translate(106.67 118.83)" fill="none" stroke="#7175d8" stroke-miterlimit="10" stroke-width="2"/>
    <line id="Line_95" data-name="Line 95" x2="45" transform="translate(106.67 128.17)" fill="none" stroke="#7175d8" stroke-miterlimit="10" stroke-width="2"/>
  </g>
</svg>
