<svg xmlns="http://www.w3.org/2000/svg" width="31.2" height="31.2" viewBox="0 0 31.2 31.2">
  <path id="Path_98" data-name="Path 98" d="M20.064-32.4a15.251,15.251,0,0,1,6.072,1.224A15.685,15.685,0,0,1,31.1-27.84a15.685,15.685,0,0,1,3.336,4.968A15.251,15.251,0,0,1,35.664-16.8a15.08,15.08,0,0,1-1.224,6.048A16.052,16.052,0,0,1,31.1-5.784a15.488,15.488,0,0,1-4.968,3.36A15.251,15.251,0,0,1,20.064-1.2a15.08,15.08,0,0,1-6.048-1.224,15.845,15.845,0,0,1-4.968-3.36,15.845,15.845,0,0,1-3.36-4.968A15.08,15.08,0,0,1,4.464-16.8a15.251,15.251,0,0,1,1.224-6.072,15.488,15.488,0,0,1,3.36-4.968,16.052,16.052,0,0,1,4.968-3.336A15.08,15.08,0,0,1,20.064-32.4Zm3.648,12.816h-2.5v-1.584q0-.48.24-.624a.926.926,0,0,1,.48-.144h1.728v-2.688h-2.4a3.587,3.587,0,0,0-1.656.336,2.781,2.781,0,0,0-1.008.84,2.851,2.851,0,0,0-.48,1.056A4.873,4.873,0,0,0,18-21.36v1.776H16.464V-16.8H18v7.776h3.216V-16.8h2.208Z" transform="translate(-4.464 32.4)" fill="#828599"/>
</svg>
