<svg xmlns="http://www.w3.org/2000/svg" width="31.296" height="31.296" viewBox="0 0 31.296 31.296">
  <path id="Path_102" data-name="Path 102" d="M24-21.648h1.968v-1.968H24Zm-3.888,0a4.63,4.63,0,0,0-1.56.264,5.8,5.8,0,0,0-1.368.7h-4.9v-.96a2.835,2.835,0,0,1,.84-2.088,2.835,2.835,0,0,1,2.088-.84H24.96a2.915,2.915,0,0,1,2.112.84,2.794,2.794,0,0,1,.864,2.088v.96H22.992a5.949,5.949,0,0,0-1.344-.7A4.427,4.427,0,0,0,20.112-21.648Zm0,1.968a2.857,2.857,0,0,1,2.064.84,2.794,2.794,0,0,1,.864,2.088,2.794,2.794,0,0,1-.864,2.088,2.858,2.858,0,0,1-2.064.84A2.915,2.915,0,0,1,18-14.664a2.794,2.794,0,0,1-.864-2.088A2.794,2.794,0,0,1,18-18.84,2.915,2.915,0,0,1,20.112-19.68ZM24.96-8.928H15.216a2.794,2.794,0,0,1-2.088-.864,2.857,2.857,0,0,1-.84-2.064V-19.68h3.888a5.8,5.8,0,0,0-.7,1.368,4.63,4.63,0,0,0-.264,1.56,4.725,4.725,0,0,0,.384,1.9,5.2,5.2,0,0,0,1.032,1.56,4.638,4.638,0,0,0,1.56,1.056,4.9,4.9,0,0,0,1.92.384,4.725,4.725,0,0,0,1.9-.384A4.7,4.7,0,0,0,23.544-13.3a5.2,5.2,0,0,0,1.032-1.56,4.725,4.725,0,0,0,.384-1.9,4.63,4.63,0,0,0-.264-1.56A5.8,5.8,0,0,0,24-19.68h3.936v7.824a2.817,2.817,0,0,1-.864,2.064A2.873,2.873,0,0,1,24.96-8.928Zm4.9-13.728a3.754,3.754,0,0,0-1.128-2.76,3.754,3.754,0,0,0-2.76-1.128H14.208a3.754,3.754,0,0,0-2.76,1.128,3.754,3.754,0,0,0-1.128,2.76V-10.9a3.754,3.754,0,0,0,1.128,2.76,3.754,3.754,0,0,0,2.76,1.128h11.76a3.754,3.754,0,0,0,2.76-1.128,3.754,3.754,0,0,0,1.128-2.76ZM20.112-1.1a15.371,15.371,0,0,1-6.12-1.224,15.488,15.488,0,0,1-4.968-3.36,16.052,16.052,0,0,1-3.336-4.968,15.2,15.2,0,0,1-1.224-6.1,15.251,15.251,0,0,1,1.224-6.072,15.975,15.975,0,0,1,3.336-4.992,15.488,15.488,0,0,1,4.968-3.36,15.371,15.371,0,0,1,6.12-1.224,15.251,15.251,0,0,1,6.072,1.224,15.77,15.77,0,0,1,4.992,3.36,15.77,15.77,0,0,1,3.36,4.992,15.251,15.251,0,0,1,1.224,6.072,15.2,15.2,0,0,1-1.224,6.1,15.845,15.845,0,0,1-3.36,4.968,15.77,15.77,0,0,1-4.992,3.36A15.251,15.251,0,0,1,20.112-1.1Z" transform="translate(-4.464 32.4)" fill="#828599"/>
</svg>
