<svg xmlns="http://www.w3.org/2000/svg" width="31.248" height="31.248" viewBox="0 0 31.248 31.248">
  <path id="Path_101" data-name="Path 101" d="M20.064-32.4a15.251,15.251,0,0,1,6.072,1.224,15.488,15.488,0,0,1,4.968,3.36,16.052,16.052,0,0,1,3.336,4.968A15.08,15.08,0,0,1,35.664-16.8a15.2,15.2,0,0,1-1.224,6.1A16.052,16.052,0,0,1,31.1-5.736a15.488,15.488,0,0,1-4.968,3.36,15.251,15.251,0,0,1-6.072,1.224,15.2,15.2,0,0,1-6.1-1.224A15.845,15.845,0,0,1,9-5.736,15.845,15.845,0,0,1,5.64-10.7a15.2,15.2,0,0,1-1.224-6.1A15.08,15.08,0,0,1,5.64-22.848,15.845,15.845,0,0,1,9-27.816a15.845,15.845,0,0,1,4.968-3.36A15.2,15.2,0,0,1,20.064-32.4Zm0,23.376a7.474,7.474,0,0,0,3.048-.624,8.05,8.05,0,0,0,2.472-1.68,8.05,8.05,0,0,0,1.68-2.472,7.357,7.357,0,0,0,.624-3,7.474,7.474,0,0,0-.624-3.048,8.05,8.05,0,0,0-1.68-2.472A8.05,8.05,0,0,0,23.112-24a7.474,7.474,0,0,0-3.048-.624A7.474,7.474,0,0,0,17.016-24a8.05,8.05,0,0,0-2.472,1.68,8.05,8.05,0,0,0-1.68,2.472A7.474,7.474,0,0,0,12.24-16.8a7.434,7.434,0,0,0,1.3,4.3A8.183,8.183,0,0,0,16.9-9.648q0-.432.024-.888a6.519,6.519,0,0,1,.12-.936q.048-.24.216-.936t.36-1.416q.192-.864.432-1.872a1.067,1.067,0,0,1-.144-.336,3.088,3.088,0,0,1-.072-.408,4.626,4.626,0,0,1-.024-.5,2.333,2.333,0,0,1,.432-1.44A1.283,1.283,0,0,1,19.3-18.96a.946.946,0,0,1,.792.336,1.28,1.28,0,0,1,.264.816,4.262,4.262,0,0,1-.24,1.272q-.24.744-.432,1.512a1.121,1.121,0,0,0,.24,1.056,1.284,1.284,0,0,0,1.008.432A2,2,0,0,0,22.7-14.76a5.946,5.946,0,0,0,.672-2.9,2.975,2.975,0,0,0-.84-2.16,3.161,3.161,0,0,0-2.376-.864A3.677,3.677,0,0,0,17.3-19.56a3.757,3.757,0,0,0-1.032,2.616,2.4,2.4,0,0,0,.144.888,2.393,2.393,0,0,0,.384.648.391.391,0,0,1,.1.432,1.643,1.643,0,0,1-.048.312,1.468,1.468,0,0,1-.1.312q-.1.336-.384.192a2.224,2.224,0,0,1-1.2-1.152,4.231,4.231,0,0,1-.384-1.824,4.369,4.369,0,0,1,.358-1.68A5.09,5.09,0,0,1,16.194-20.4a5.381,5.381,0,0,1,1.72-1.176,5.907,5.907,0,0,1,2.413-.456,4.784,4.784,0,0,1,3.583,1.368,4.369,4.369,0,0,1,1.338,3.144A6.149,6.149,0,0,1,24.105-13.7a3.63,3.63,0,0,1-3.048,1.512,2.333,2.333,0,0,1-1.143-.288,2,2,0,0,1-.762-.672q-.144.528-.24.96-.1.384-.168.744a2.34,2.34,0,0,1-.12.456,3.751,3.751,0,0,1-.312.864q-.216.432-.456.816A8.016,8.016,0,0,0,20.064-9.024Z" transform="translate(-4.416 32.4)" fill="#828599"/>
</svg>
