<svg id="Quality_videos_and_support" data-name="Quality videos and support" xmlns="http://www.w3.org/2000/svg" width="206.002" height="144.95" viewBox="0 0 206.002 144.95">
  <g id="Layer_12" data-name="Layer 12">
    <path id="Path_95" data-name="Path 95" d="M116.62,112.78H14.13A11.13,11.13,0,0,1,3,101.65V14.13A11.13,11.13,0,0,1,14.13,3H170.85A11.13,11.13,0,0,1,182,14.13V58.41" fill="none" stroke="#7175d8" stroke-linejoin="round" stroke-width="6"/>
    <path id="Path_96" data-name="Path 96" d="M117.29,57.89,74.67,33.28V82.5Z" fill="none" stroke="#7175d8" stroke-linejoin="round" stroke-width="6"/>
    <circle id="Ellipse_51" data-name="Ellipse 51" cx="39" cy="39" r="39" transform="translate(124.95 63.83)" fill="none" stroke="#7175d8" stroke-linejoin="round" stroke-width="6"/>
    <circle id="Ellipse_52" data-name="Ellipse 52" cx="21.28" cy="21.28" r="21.28" transform="translate(142.67 81.55)" fill="none" stroke="#7175d8" stroke-linejoin="round" stroke-width="6"/>
    <path id="Path_97" data-name="Path 97" d="M162.94,141.87a39.15,39.15,0,0,1-28.52-13.48L148,116.6a21.06,21.06,0,0,0,15.37,7.28Zm27.32-10.18-12.13-13.3A21.08,21.08,0,0,0,185,102.83h18a39.12,39.12,0,0,1-12.74,28.86Zm-47.33-29.95-18-.92a39.15,39.15,0,0,1,14.22-28.17L150.6,86.56a21.07,21.07,0,0,0-7.67,15.18Zm37.64-11.83a21.1,21.1,0,0,0-15-8.06L167,63.9a39.12,39.12,0,0,1,27.79,14.94Z" fill="none" stroke="#7175d8" stroke-miterlimit="10" stroke-width="6"/>
  </g>
</svg>
