<svg xmlns="http://www.w3.org/2000/svg" width="232.285" height="140.882" viewBox="0 0 232.285 140.882">
  <g id="save_your_time_money" data-name="save your time &amp; money" transform="translate(0 -0.049)">
    <g id="Layer_3" data-name="Layer 3" transform="translate(0 0.049)">
      <path id="Path_65" data-name="Path 65" d="M220.935,65.555c-3.06-3.4-6.47-6.8-11.055-11.108l4.887-5.177c4.744,4.46,8.249,8.012,11.434,11.523Z" transform="translate(-85.408 -20.079)" fill="#7175d8"/>
      <path id="Path_66" data-name="Path 66" d="M174.948,218.441H121.573c-12.7,0-25.549-16.742-28.313-25.858l6.808-2.064c2.105,6.939,12.881,20.8,21.5,20.8h53.376c5.711,0,15.87-9.72,18.527-15.354L199.91,199C196.684,205.857,184.752,218.441,174.948,218.441Z" transform="translate(-37.951 -77.559)" fill="#7175d8"/>
      <path id="Path_67" data-name="Path 67" d="M107.909,91.616l-6.559-2.764C109.339,69.9,130.635,50.036,131.537,49.2l4.839,5.219C136.169,54.609,115.293,74.091,107.909,91.616Z" transform="translate(-41.243 -20.05)" fill="#7175d8"/>
      <path id="Path_68" data-name="Path 68" d="M179.5,34.495h0L149.2,34.418a3.558,3.558,0,0,1-2.965-1.578l-11.648-17.4A5.794,5.794,0,0,1,136.7,7.077c6.7-3.529,7.6-3.736,9.181-3.2.338.107,3.386,1.02,7.662,2.289l7.3-5.077A5.8,5.8,0,0,1,167.2.91l8.57,5.26,6.844-2.426a5.83,5.83,0,0,1,5.083.593l4.543,2.924a5.8,5.8,0,0,1,1.72,8.042L182.5,32.882a3.558,3.558,0,0,1-3,1.613ZM151.113,27.3l26.48.065,9.679-14.892-2.888-1.862-6.832,2.455a5.771,5.771,0,0,1-4.976-.528L164.208,7.4l-7.117,4.946a5.771,5.771,0,0,1-4.964.8c-2.633-.783-5.682-1.69-7.33-2.188-.593.267-1.649.771-3.487,1.72Zm-7.479-16.707h.036Z" transform="translate(-54.367 -0.049)" fill="#7175d8"/>
      <path id="Path_69" data-name="Path 69" d="M57.767,121.047H41.558a3.558,3.558,0,1,1,0-7.117H57.767a3.558,3.558,0,0,1,0,7.117Z" transform="translate(-15.464 -46.392)" fill="#7175d8"/>
      <path id="Path_70" data-name="Path 70" d="M108.73,121.047H94.888a3.558,3.558,0,1,1,0-7.117H108.73a3.558,3.558,0,1,1,0,7.117Z" transform="translate(-37.166 -46.392)" fill="#7175d8"/>
      <path id="Path_71" data-name="Path 71" d="M70.379,156.717H3.558a3.558,3.558,0,1,1,0-7.117h66.82a3.558,3.558,0,1,1,0,7.117Z" transform="translate(0 -60.907)" fill="#7175d8"/>
      <path id="Path_72" data-name="Path 72" d="M87.028,193.377H41.558a3.558,3.558,0,1,1,0-7.117h45.47a3.558,3.558,0,1,1,0,7.117Z" transform="translate(-15.464 -75.825)" fill="#7175d8"/>
      <path id="Path_73" data-name="Path 73" d="M174.441,154.417a15.129,15.129,0,0,1-15.111-15.111,3.558,3.558,0,1,1,7.117,0,8.006,8.006,0,0,0,7.994,7.994c4.745,0,8.493-3.214,8.7-7.467.077-1.69-1.323-4.549-8.451-8.558l-1.619-.9c-5.48-3.019-11.689-6.447-11.689-14.139a13.747,13.747,0,0,1,13.6-13.516,13.219,13.219,0,0,1,13.207,13.213,3.558,3.558,0,1,1-7.117,0,6.1,6.1,0,0,0-6.091-6.091,6.7,6.7,0,0,0-6.488,6.4c0,3.179,2.319,4.744,8.012,7.911l1.667.925c3.084,1.732,12.454,7.01,12.069,15.105C189.861,148.16,182.916,154.417,174.441,154.417Z" transform="translate(-64.837 -41.83)" fill="#7175d8"/>
      <path id="Path_74" data-name="Path 74" d="M182.838,106.04a3.558,3.558,0,0,1-3.558-3.558V96.948a3.558,3.558,0,1,1,7.117,0v5.533A3.558,3.558,0,0,1,182.838,106.04Z" transform="translate(-72.956 -38.033)" fill="#7175d8"/>
      <path id="Path_75" data-name="Path 75" d="M183.978,191.234a3.558,3.558,0,0,1-3.558-3.558v-6.227a3.558,3.558,0,1,1,7.117,0v6.227A3.558,3.558,0,0,1,183.978,191.234Z" transform="translate(-73.42 -72.419)" fill="#7175d8"/>
    </g>
    <g id="Layer_4" data-name="Layer 4" transform="translate(137.098 11.442)">
      <path id="Path_76" data-name="Path 76" d="M278.763,133.826a47.593,47.593,0,1,1,47.593-47.591,47.593,47.593,0,0,1-47.593,47.591Zm0-88.064A40.477,40.477,0,1,0,319.24,86.239a40.476,40.476,0,0,0-40.476-40.476Z" transform="translate(-231.17 -27.146)" fill="#7175d8"/>
      <path id="Path_77" data-name="Path 77" d="M306.325,121.177a7.289,7.289,0,1,1,7.283-7.283A7.289,7.289,0,0,1,306.325,121.177Zm0-7.455a.172.172,0,1,0,.14.169.172.172,0,0,0-.14-.169Z" transform="translate(-258.785 -54.802)" fill="#7175d8"/>
      <rect id="Rectangle_189" data-name="Rectangle 189" width="7.117" height="31.658" transform="translate(43.982 27.429)" fill="#7175d8"/>
      <rect id="Rectangle_190" data-name="Rectangle 190" width="26.391" height="7.117" transform="translate(34.398)" fill="#7175d8"/>
      <rect id="Rectangle_191" data-name="Rectangle 191" width="7.117" height="11.494" transform="translate(44.035 3.558)" fill="#7175d8"/>
    </g>
  </g>
</svg>
