<svg id="Secured_payments" data-name="Secured payments" xmlns="http://www.w3.org/2000/svg" width="206" height="144.56" viewBox="0 0 206 144.56">
  <g id="Layer_11" data-name="Layer 11">
    <path id="Path_92" data-name="Path 92" d="M111.17,112.78H11.38A8.4,8.4,0,0,1,3,104.4v-93A8.4,8.4,0,0,1,11.38,3H173.6a8.4,8.4,0,0,1,8.4,8.38V34.12" fill="none" stroke="#7175d8" stroke-miterlimit="10" stroke-width="6"/>
    <path id="Path_93" data-name="Path 93" d="M189.67,84.56v-19a28.5,28.5,0,0,0-57,0v19.3" fill="none" stroke="#7175d8" stroke-miterlimit="10" stroke-width="6"/>
    <path id="Path_94" data-name="Path 94" d="M176.35,84.89l-.08-19.45a15.15,15.15,0,1,0-30.29,0V84.89" fill="none" stroke="#7175d8" stroke-miterlimit="10" stroke-width="6"/>
    <rect id="Rectangle_213" data-name="Rectangle 213" width="83.67" height="56.67" transform="translate(119.33 84.89)" fill="none" stroke="#7175d8" stroke-linejoin="round" stroke-width="6"/>
    <circle id="Ellipse_50" data-name="Ellipse 50" cx="2.28" cy="2.28" r="2.28" transform="translate(158.89 104.45)" fill="none" stroke="#7175d8" stroke-linejoin="round" stroke-width="6"/>
    <line id="Line_96" data-name="Line 96" y2="19.61" transform="translate(161.17 106.73)" fill="none" stroke="#7175d8" stroke-linejoin="round" stroke-width="6"/>
    <line id="Line_97" data-name="Line 97" x2="180.65" transform="translate(1.33 23.28)" fill="none" stroke="#7175d8" stroke-linejoin="round" stroke-width="6"/>
    <line id="Line_98" data-name="Line 98" x2="125" transform="translate(3 45.95)" fill="none" stroke="#7175d8" stroke-linejoin="round" stroke-width="6"/>
    <line id="Line_99" data-name="Line 99" x2="62.99" transform="translate(28.67 67.59)" fill="none" stroke="#7175d8" stroke-linejoin="round" stroke-width="6"/>
    <line id="Line_100" data-name="Line 100" x2="56" transform="translate(28.67 84.89)" fill="none" stroke="#7175d8" stroke-linejoin="round" stroke-width="6"/>
  </g>
</svg>
