<svg xmlns="http://www.w3.org/2000/svg" width="59" height="52" viewBox="0 0 59 52">
  <g id="Demo_icon" data-name="Demo icon" transform="translate(-793 -3447)">
    <rect id="Rectangle_186" data-name="Rectangle 186" width="59" height="52" rx="3" transform="translate(793 3447)" fill="#7175d8"/>
    <path id="Demo_ICon-2" data-name="Demo ICon" d="M67.745,56.952l5.245-14.43a1.537,1.537,0,0,0-1.97-1.97L56.589,45.8,41.181,51.382A1.073,1.073,0,0,0,41,53.308L46.07,56.3l3.985,2.341a1.947,1.947,0,0,0,2.222-.178l6-4.948,9.793-8.06-8.06,9.793-4.948,6a1.945,1.945,0,0,0-.178,2.222l2.341,3.985,2.993,5.067a1.073,1.073,0,0,0,1.926-.178Z" transform="translate(786.316 3399.651) rotate(21)" fill="#fff"/>
  </g>
</svg>
