<svg xmlns="http://www.w3.org/2000/svg" width="31.248" height="31.248" viewBox="0 0 31.248 31.248">
  <path id="Path_100" data-name="Path 100" d="M20.112-32.352a15.08,15.08,0,0,1,6.048,1.224,16.052,16.052,0,0,1,4.968,3.336,15.488,15.488,0,0,1,3.36,4.968,15.251,15.251,0,0,1,1.224,6.072,15.2,15.2,0,0,1-1.224,6.1,15.845,15.845,0,0,1-3.36,4.968,15.845,15.845,0,0,1-4.968,3.36A15.08,15.08,0,0,1,20.112-1.1a15.2,15.2,0,0,1-6.1-1.224,15.845,15.845,0,0,1-4.968-3.36,15.845,15.845,0,0,1-3.36-4.968,15.2,15.2,0,0,1-1.224-6.1,15.251,15.251,0,0,1,1.224-6.072,15.488,15.488,0,0,1,3.36-4.968,16.052,16.052,0,0,1,4.968-3.336A15.2,15.2,0,0,1,20.112-32.352ZM26.3-19.2a4.732,4.732,0,0,0,.912-.744,7.918,7.918,0,0,0,.72-.888,5.847,5.847,0,0,1-.888.312,6,6,0,0,1-.984.168,3.166,3.166,0,0,0,1.44-1.776,5.921,5.921,0,0,1-2.064.816,2.973,2.973,0,0,0-2.3-1.008,3.145,3.145,0,0,0-2.28.912,3.024,3.024,0,0,0-.936,2.256,4.35,4.35,0,0,0,.048.768,8.488,8.488,0,0,1-3.7-1.008,9.791,9.791,0,0,1-2.88-2.352,3.121,3.121,0,0,0-.48,1.584A3.175,3.175,0,0,0,13.3-18.6a3.1,3.1,0,0,0,1.056,1.128,2.855,2.855,0,0,1-1.44-.384v.048a2.994,2.994,0,0,0,.744,2.016,3.307,3.307,0,0,0,1.848,1.1,1.179,1.179,0,0,1-.432.1h-.744a.981.981,0,0,1-.312-.048,3.347,3.347,0,0,0,1.152,1.584,3.252,3.252,0,0,0,1.872.672,6.309,6.309,0,0,1-3.984,1.344,4.35,4.35,0,0,1-.768-.048,9.438,9.438,0,0,0,2.3,1.056,8.763,8.763,0,0,0,2.592.384,8.953,8.953,0,0,0,3.912-.816,9.024,9.024,0,0,0,2.88-2.136,9.15,9.15,0,0,0,1.776-2.952,9.278,9.278,0,0,0,.6-3.216A1.456,1.456,0,0,0,26.3-19.2Z" transform="translate(-4.464 32.352)" fill="#828599"/>
</svg>
