<svg xmlns="http://www.w3.org/2000/svg" width="31.2" height="31.2" viewBox="0 0 31.2 31.2">
  <path id="Path_99" data-name="Path 99" d="M27.936-17.9,17.088-25.056a1.3,1.3,0,0,0-1.3-.072A1.148,1.148,0,0,0,15.168-24V-9.6a1.148,1.148,0,0,0,.624,1.128,1.24,1.24,0,0,0,1.3-.12l10.848-7.344a1.114,1.114,0,0,0,.672-.96A1.217,1.217,0,0,0,27.936-17.9ZM20.064-1.2a15.2,15.2,0,0,1-6.1-1.224,15.559,15.559,0,0,1-4.944-3.36,16.052,16.052,0,0,1-3.336-4.968A15.08,15.08,0,0,1,4.464-16.8a15.251,15.251,0,0,1,1.224-6.072A15.685,15.685,0,0,1,9.024-27.84a15.759,15.759,0,0,1,4.944-3.336,15.2,15.2,0,0,1,6.1-1.224,15.08,15.08,0,0,1,6.048,1.224A16.052,16.052,0,0,1,31.08-27.84a15.488,15.488,0,0,1,3.36,4.968A15.251,15.251,0,0,1,35.664-16.8a15.08,15.08,0,0,1-1.224,6.048,15.845,15.845,0,0,1-3.36,4.968,15.845,15.845,0,0,1-4.968,3.36A15.08,15.08,0,0,1,20.064-1.2Z" transform="translate(-4.464 32.4)" fill="#828599"/>
</svg>
